<mxfile host="app.diagrams.net" agent="Mozilla/5.0 (Macintosh; Intel Mac OS X 10_15_7) AppleWebKit/537.36 (KHTML, like Gecko) Chrome/126.0.0.0 Safari/537.36" version="24.7.5" pages="3">
  <diagram id="C5RBs43oDa-KdzZeNtuy" name="Architecture">
    <mxGraphModel grid="1" page="1" gridSize="10" guides="1" tooltips="1" connect="1" arrows="1" fold="1" pageScale="1" pageWidth="827" pageHeight="1169" math="0" shadow="0">
      <root>
        <mxCell id="WIyWlLk6GJQsqaUBKTNV-0" />
        <mxCell id="WIyWlLk6GJQsqaUBKTNV-1" parent="WIyWlLk6GJQsqaUBKTNV-0" />
        <mxCell id="unNWJV6oFUd24f0aNLEj-12" style="edgeStyle=orthogonalEdgeStyle;rounded=0;orthogonalLoop=1;jettySize=auto;html=1;entryX=0;entryY=0.5;entryDx=0;entryDy=0;" edge="1" parent="WIyWlLk6GJQsqaUBKTNV-1" source="unNWJV6oFUd24f0aNLEj-3" target="unNWJV6oFUd24f0aNLEj-6">
          <mxGeometry relative="1" as="geometry" />
        </mxCell>
        <mxCell id="unNWJV6oFUd24f0aNLEj-3" value="Mobile App" style="sketch=0;aspect=fixed;pointerEvents=1;shadow=0;dashed=0;html=1;strokeColor=none;labelPosition=center;verticalLabelPosition=bottom;verticalAlign=top;align=center;fillColor=#00188D;shape=mxgraph.azure.mobile" vertex="1" parent="WIyWlLk6GJQsqaUBKTNV-1">
          <mxGeometry x="63" y="120" width="56" height="80" as="geometry" />
        </mxCell>
        <mxCell id="unNWJV6oFUd24f0aNLEj-6" value="API Gateway" style="sketch=0;html=1;verticalAlign=top;labelPosition=center;verticalLabelPosition=bottom;align=center;spacingTop=-6;fontSize=11;fontStyle=1;fontColor=#999999;shape=image;aspect=fixed;imageAspect=0;image=data:image/svg+xml,PHN2ZyB4bWxucz0iaHR0cDovL3d3dy53My5vcmcvMjAwMC9zdmciIGhlaWdodD0iMzY3LjgxODMyODg1NzQyMTkiIHZpZXdCb3g9IjcuMTA1NDI3MzU3NjAxMDAyZS0xNSAwIDM2Ni40MTAxODY3Njc1NzgxIDM2Ny44MTgzMjg4NTc0MjE5IiBwcmVzZXJ2ZUFzcGVjdFJhdGlvPSJ4TWlkWU1pZCBtZWV0IiB3aWR0aD0iMzY2LjQxMDE5Njc2NzU3OTEiIHZlcnNpb249IjEuMSIgaWQ9InN2Zzk4NyIgem9vbUFuZFBhbj0ibWFnbmlmeSI+JiN4YTsgIDxwYXRoIGQ9Im0gNDguMjUxOTYsMTExLjUzOTA2IGMgLTcuNjE4NjQsMmUtNCAtMTMuNzk0NzIsNi4xNzYyOCAtMTMuNzk0OTMsMTMuNzk0OTIgMi4xZS00LDcuNjE4NjQgNi4xNzYyOSwxMy43OTQ3MiAxMy43OTQ5MywxMy43OTQ5MiBoIDE0NS4xNDY5MiB2IC0yNy41ODk4NCB6IG0gMjM4LjYwODU5LDU3LjQ1MTE3IGggNjUuNzU0NjkgYyA3LjYxODY0LC0yLjFlLTQgMTMuNzk0NzEsLTYuMTc2MjggMTMuNzk0OTIsLTEzLjc5NDkyIC0yLjFlLTQsLTcuNjE4NjQgLTYuMTc2MjgsLTEzLjc5NDcxIC0xMy43OTQ5MiwtMTMuNzk0OTIgSCAyODQuODUwNiBaIE0gMTMuNzk0OTIsMTcwLjk3NDYxIEMgNi4xNzYyODAxLDE3MC45NzQ4MiAyLjEwMDkxOWUtNCwxNzcuMTUwODkgOS4xODk5MjFlLTgsMTg0Ljc2OTUzIC04LjY5OTA4MWUtNCwxOTIuMzg4OTMgNi4xNzU1MjAxLDE5OC41NjYxOSAxMy43OTQ5MiwxOTguNTY2NCBIIDE5My4zOTg4OCBWIDE3MC45NzQ2MSBaIE0gMjg0LjMwNzgsMjI3LjU2NjQgaCA2OC4zMDc0NCBjIDcuNjE4NjQsLTIuMWUtNCAxMy43OTQ3MSwtNi4xNzYyOCAxMy43OTQ5MiwtMTMuNzk0OTIgLTIuMWUtNCwtNy42MTg2NCAtNi4xNzYyOCwtMTMuNzk0NzEgLTEzLjc5NDkyLC0xMy43OTQ5MiBoIC02NS45MjE3OCB6IG0gLTIzNi4wNTU4NCwxLjY5NzI3IGMgLTcuNjE4NjQsMmUtNCAtMTMuNzk0NzIsNi4xNzYyOCAtMTMuNzk0OTMsMTMuNzk0OTIgMi4xZS00LDcuNjE4NjQgNi4xNzYyOSwxMy43OTQ3MiAxMy43OTQ5MywxMy43OTQ5MiBIIDE5My4zOTg4OCBWIDIyOS4yNjM2NyBaIE0gMTg5LjUyMTQ5LDAgYyAtMjQuNTc0MTEsMCAtNDkuMTY3MzcsMjAuMDU1MDcgLTU5LjQzNzUsNzUuMzczMDQgaCAzMC41ODAwNyBjIDQuNjE2MzMsLTI0LjE2MjA2IDE1LjM0ODk2LC00Ny41MjE0OCAyNy44NTM1MiwtNDcuNTIxNDggMTIuMTU4OCwwIDM5LjQ1ODk4LDU3LjQ1MDQ0IDM5LjQ1ODk4LDE2MC40MTQwNiAwLDY5LjkxNTEzIC0xOS41NzgwOSwxNTIuMTE1MjQgLTQxLjE3MTg3LDE1Mi4xMTUyMyAtMTUuMjY4ODEsMmUtNSAtMjEuMjE2NjgsLTI4LjMzMzU2IC0yNS40NDMzNiwtNDYuNzE4NzQgbCAtMzAuNDE0MDYsLTAuMDY4NCBjIDQuMjIwNzQsMjAuNTQwODcgMTYuOTA3NjgsNzQuMjI0NiA1Ny43MTI4OSw3NC4yMjQ2IDUzLjQzNjcyLDAgNjguOTEyMTEsLTExMS45OTMwNSA2OC45MTIxMSwtMTgwLjQ2Mjg5IEMgMjU3LjU3MjI3LDkzLjgwMDc2IDIzNi41ODM0LDAgMTg5LjUyMTQ5LDAgWiIgc3R5bGU9ImNvbG9yOiMwMDAwMDA7b3BhY2l0eToxO2ZpbGw6IzQyODVmNDtmaWxsLW9wYWNpdHk6MTtzdHJva2UtbGluZWNhcDpyb3VuZDstaW5rc2NhcGUtc3Ryb2tlOm5vbmUiLz4mI3hhOzwvc3ZnPg==;" vertex="1" parent="WIyWlLk6GJQsqaUBKTNV-1">
          <mxGeometry x="310" y="120" width="80" height="80" as="geometry" />
        </mxCell>
        <mxCell id="unNWJV6oFUd24f0aNLEj-19" style="edgeStyle=orthogonalEdgeStyle;rounded=0;orthogonalLoop=1;jettySize=auto;html=1;entryX=0;entryY=0.5;entryDx=0;entryDy=0;" edge="1" parent="WIyWlLk6GJQsqaUBKTNV-1" source="unNWJV6oFUd24f0aNLEj-14" target="unNWJV6oFUd24f0aNLEj-17">
          <mxGeometry relative="1" as="geometry" />
        </mxCell>
        <mxCell id="unNWJV6oFUd24f0aNLEj-56" style="edgeStyle=orthogonalEdgeStyle;rounded=0;orthogonalLoop=1;jettySize=auto;html=1;" edge="1" parent="WIyWlLk6GJQsqaUBKTNV-1" source="unNWJV6oFUd24f0aNLEj-14" target="unNWJV6oFUd24f0aNLEj-55">
          <mxGeometry relative="1" as="geometry">
            <mxPoint x="800" y="590" as="targetPoint" />
            <Array as="points">
              <mxPoint x="720" y="180" />
              <mxPoint x="720" y="560" />
            </Array>
          </mxGeometry>
        </mxCell>
        <mxCell id="unNWJV6oFUd24f0aNLEj-66" value="Integration" style="edgeLabel;html=1;align=center;verticalAlign=middle;resizable=0;points=[];" connectable="0" vertex="1" parent="unNWJV6oFUd24f0aNLEj-56">
          <mxGeometry x="-0.0459" y="3" relative="1" as="geometry">
            <mxPoint as="offset" />
          </mxGeometry>
        </mxCell>
        <mxCell id="unNWJV6oFUd24f0aNLEj-14" value="API Service" style="outlineConnect=0;dashed=0;verticalLabelPosition=bottom;verticalAlign=top;align=center;html=1;shape=mxgraph.aws3.worker;fillColor=#D9A741;gradientColor=none;" vertex="1" parent="WIyWlLk6GJQsqaUBKTNV-1">
          <mxGeometry x="490" y="120" width="80" height="80" as="geometry" />
        </mxCell>
        <mxCell id="unNWJV6oFUd24f0aNLEj-15" style="edgeStyle=orthogonalEdgeStyle;rounded=0;orthogonalLoop=1;jettySize=auto;html=1;entryX=0;entryY=0.5;entryDx=0;entryDy=0;entryPerimeter=0;" edge="1" parent="WIyWlLk6GJQsqaUBKTNV-1" source="unNWJV6oFUd24f0aNLEj-6" target="unNWJV6oFUd24f0aNLEj-14">
          <mxGeometry relative="1" as="geometry" />
        </mxCell>
        <mxCell id="unNWJV6oFUd24f0aNLEj-43" style="edgeStyle=orthogonalEdgeStyle;rounded=0;orthogonalLoop=1;jettySize=auto;html=1;entryX=0.5;entryY=0;entryDx=0;entryDy=0;" edge="1" parent="WIyWlLk6GJQsqaUBKTNV-1" source="unNWJV6oFUd24f0aNLEj-17" target="unNWJV6oFUd24f0aNLEj-42">
          <mxGeometry relative="1" as="geometry" />
        </mxCell>
        <mxCell id="unNWJV6oFUd24f0aNLEj-78" style="edgeStyle=orthogonalEdgeStyle;rounded=0;orthogonalLoop=1;jettySize=auto;html=1;exitX=0;exitY=0.75;exitDx=0;exitDy=0;" edge="1" parent="WIyWlLk6GJQsqaUBKTNV-1" source="unNWJV6oFUd24f0aNLEj-17" target="unNWJV6oFUd24f0aNLEj-55">
          <mxGeometry relative="1" as="geometry">
            <Array as="points">
              <mxPoint x="830" y="178" />
              <mxPoint x="830" y="540" />
            </Array>
          </mxGeometry>
        </mxCell>
        <mxCell id="unNWJV6oFUd24f0aNLEj-79" value="Integration" style="edgeLabel;html=1;align=center;verticalAlign=middle;resizable=0;points=[];" connectable="0" vertex="1" parent="unNWJV6oFUd24f0aNLEj-78">
          <mxGeometry x="-0.0495" y="2" relative="1" as="geometry">
            <mxPoint as="offset" />
          </mxGeometry>
        </mxCell>
        <mxCell id="unNWJV6oFUd24f0aNLEj-17" value="Backend" style="image;aspect=fixed;perimeter=ellipsePerimeter;html=1;align=center;shadow=0;dashed=0;fontColor=#000000;labelBackgroundColor=default;fontSize=12;spacingTop=3;image=img/lib/ibm/infrastructure/mobile_backend.svg;" vertex="1" parent="WIyWlLk6GJQsqaUBKTNV-1">
          <mxGeometry x="910" y="120" width="80" height="80" as="geometry" />
        </mxCell>
        <mxCell id="unNWJV6oFUd24f0aNLEj-21" value="&lt;h1 style=&quot;margin-top: 0px;&quot;&gt;Front End&lt;/h1&gt;" style="text;html=1;whiteSpace=wrap;overflow=hidden;rounded=0;" vertex="1" parent="WIyWlLk6GJQsqaUBKTNV-1">
          <mxGeometry x="40" y="40" width="140" height="40" as="geometry" />
        </mxCell>
        <mxCell id="unNWJV6oFUd24f0aNLEj-22" value="&lt;h1 style=&quot;margin-top: 0px;&quot;&gt;Middleware&lt;/h1&gt;" style="text;html=1;whiteSpace=wrap;overflow=hidden;rounded=0;align=center;" vertex="1" parent="WIyWlLk6GJQsqaUBKTNV-1">
          <mxGeometry x="310" y="40" width="270" height="40" as="geometry" />
        </mxCell>
        <mxCell id="unNWJV6oFUd24f0aNLEj-24" value="&lt;h1 style=&quot;margin-top: 0px;&quot;&gt;Backend&amp;nbsp;&lt;/h1&gt;" style="text;html=1;whiteSpace=wrap;overflow=hidden;rounded=0;" vertex="1" parent="WIyWlLk6GJQsqaUBKTNV-1">
          <mxGeometry x="880" y="40" width="140" height="40" as="geometry" />
        </mxCell>
        <mxCell id="unNWJV6oFUd24f0aNLEj-26" value="" style="outlineConnect=0;dashed=0;verticalLabelPosition=bottom;verticalAlign=top;align=center;html=1;shape=mxgraph.aws3.worker;fillColor=#D9A741;gradientColor=none;" vertex="1" parent="WIyWlLk6GJQsqaUBKTNV-1">
          <mxGeometry x="480" y="240" width="20" height="20" as="geometry" />
        </mxCell>
        <mxCell id="unNWJV6oFUd24f0aNLEj-29" value="User Registration API" style="text;html=1;align=left;verticalAlign=middle;whiteSpace=wrap;rounded=0;" vertex="1" parent="WIyWlLk6GJQsqaUBKTNV-1">
          <mxGeometry x="503" y="235" width="130" height="30" as="geometry" />
        </mxCell>
        <mxCell id="unNWJV6oFUd24f0aNLEj-30" value="" style="outlineConnect=0;dashed=0;verticalLabelPosition=bottom;verticalAlign=top;align=center;html=1;shape=mxgraph.aws3.worker;fillColor=#D9A741;gradientColor=none;" vertex="1" parent="WIyWlLk6GJQsqaUBKTNV-1">
          <mxGeometry x="480" y="265" width="20" height="20" as="geometry" />
        </mxCell>
        <mxCell id="unNWJV6oFUd24f0aNLEj-31" value="User Signin API" style="text;html=1;align=left;verticalAlign=middle;whiteSpace=wrap;rounded=0;" vertex="1" parent="WIyWlLk6GJQsqaUBKTNV-1">
          <mxGeometry x="503" y="260" width="130" height="30" as="geometry" />
        </mxCell>
        <mxCell id="unNWJV6oFUd24f0aNLEj-32" value="" style="outlineConnect=0;dashed=0;verticalLabelPosition=bottom;verticalAlign=top;align=center;html=1;shape=mxgraph.aws3.worker;fillColor=#D9A741;gradientColor=none;" vertex="1" parent="WIyWlLk6GJQsqaUBKTNV-1">
          <mxGeometry x="480" y="290" width="20" height="20" as="geometry" />
        </mxCell>
        <mxCell id="unNWJV6oFUd24f0aNLEj-33" value="Loan Application API" style="text;html=1;align=left;verticalAlign=middle;whiteSpace=wrap;rounded=0;" vertex="1" parent="WIyWlLk6GJQsqaUBKTNV-1">
          <mxGeometry x="503" y="285" width="130" height="30" as="geometry" />
        </mxCell>
        <mxCell id="unNWJV6oFUd24f0aNLEj-34" value="" style="outlineConnect=0;dashed=0;verticalLabelPosition=bottom;verticalAlign=top;align=center;html=1;shape=mxgraph.aws3.worker;fillColor=#D9A741;gradientColor=none;" vertex="1" parent="WIyWlLk6GJQsqaUBKTNV-1">
          <mxGeometry x="480" y="315" width="20" height="20" as="geometry" />
        </mxCell>
        <mxCell id="unNWJV6oFUd24f0aNLEj-35" value="Loan Application Status API" style="text;html=1;align=left;verticalAlign=middle;whiteSpace=wrap;rounded=0;" vertex="1" parent="WIyWlLk6GJQsqaUBKTNV-1">
          <mxGeometry x="503" y="310" width="160" height="30" as="geometry" />
        </mxCell>
        <mxCell id="unNWJV6oFUd24f0aNLEj-36" value="" style="outlineConnect=0;dashed=0;verticalLabelPosition=bottom;verticalAlign=top;align=center;html=1;shape=mxgraph.aws3.worker;fillColor=#D9A741;gradientColor=none;" vertex="1" parent="WIyWlLk6GJQsqaUBKTNV-1">
          <mxGeometry x="480" y="340" width="20" height="20" as="geometry" />
        </mxCell>
        <mxCell id="unNWJV6oFUd24f0aNLEj-37" value="Loan Application Notif API" style="text;html=1;align=left;verticalAlign=middle;whiteSpace=wrap;rounded=0;" vertex="1" parent="WIyWlLk6GJQsqaUBKTNV-1">
          <mxGeometry x="503" y="335" width="160" height="30" as="geometry" />
        </mxCell>
        <mxCell id="unNWJV6oFUd24f0aNLEj-39" value="" style="outlineConnect=0;dashed=0;verticalLabelPosition=bottom;verticalAlign=top;align=center;html=1;shape=mxgraph.aws3.worker;fillColor=#D9A741;gradientColor=none;" vertex="1" parent="WIyWlLk6GJQsqaUBKTNV-1">
          <mxGeometry x="480" y="365" width="20" height="20" as="geometry" />
        </mxCell>
        <mxCell id="unNWJV6oFUd24f0aNLEj-40" value="Loan Status API" style="text;html=1;align=left;verticalAlign=middle;whiteSpace=wrap;rounded=0;" vertex="1" parent="WIyWlLk6GJQsqaUBKTNV-1">
          <mxGeometry x="503" y="360" width="130" height="30" as="geometry" />
        </mxCell>
        <mxCell id="unNWJV6oFUd24f0aNLEj-42" value="Database" style="image;html=1;image=img/lib/clip_art/computers/Database_128x128.png" vertex="1" parent="WIyWlLk6GJQsqaUBKTNV-1">
          <mxGeometry x="1090" y="230" width="80" height="80" as="geometry" />
        </mxCell>
        <mxCell id="unNWJV6oFUd24f0aNLEj-47" value="" style="image;aspect=fixed;html=1;points=[];align=center;fontSize=12;image=img/lib/azure2/security/Multifactor_Authentication.svg;" vertex="1" parent="WIyWlLk6GJQsqaUBKTNV-1">
          <mxGeometry x="310" y="240" width="24.44" height="30" as="geometry" />
        </mxCell>
        <mxCell id="unNWJV6oFUd24f0aNLEj-48" value="Auth Client" style="text;html=1;align=left;verticalAlign=middle;whiteSpace=wrap;rounded=0;" vertex="1" parent="WIyWlLk6GJQsqaUBKTNV-1">
          <mxGeometry x="334.44" y="240" width="130" height="30" as="geometry" />
        </mxCell>
        <mxCell id="unNWJV6oFUd24f0aNLEj-49" value="" style="image;html=1;image=img/lib/clip_art/finance/Coins_128x128.png" vertex="1" parent="WIyWlLk6GJQsqaUBKTNV-1">
          <mxGeometry x="71" y="145" width="40" height="30" as="geometry" />
        </mxCell>
        <mxCell id="unNWJV6oFUd24f0aNLEj-50" value="&lt;h1 style=&quot;margin-top: 0px;&quot;&gt;Third-Party&lt;/h1&gt;" style="text;html=1;whiteSpace=wrap;overflow=hidden;rounded=0;" vertex="1" parent="WIyWlLk6GJQsqaUBKTNV-1">
          <mxGeometry x="880" y="460" width="160" height="40" as="geometry" />
        </mxCell>
        <mxCell id="unNWJV6oFUd24f0aNLEj-55" value="" style="sketch=0;pointerEvents=1;shadow=0;dashed=0;html=1;strokeColor=none;fillColor=#505050;labelPosition=center;verticalLabelPosition=bottom;verticalAlign=top;outlineConnect=0;align=center;shape=mxgraph.office.communications.3rd_party_service;" vertex="1" parent="WIyWlLk6GJQsqaUBKTNV-1">
          <mxGeometry x="920" y="520" width="80" height="80" as="geometry" />
        </mxCell>
        <mxCell id="unNWJV6oFUd24f0aNLEj-57" value="" style="sketch=0;pointerEvents=1;shadow=0;dashed=0;html=1;strokeColor=none;fillColor=#505050;labelPosition=center;verticalLabelPosition=bottom;verticalAlign=top;outlineConnect=0;align=center;shape=mxgraph.office.communications.3rd_party_service;" vertex="1" parent="WIyWlLk6GJQsqaUBKTNV-1">
          <mxGeometry x="920" y="620" width="20" height="20" as="geometry" />
        </mxCell>
        <mxCell id="unNWJV6oFUd24f0aNLEj-59" value="KYC Service" style="text;html=1;align=left;verticalAlign=middle;whiteSpace=wrap;rounded=0;" vertex="1" parent="WIyWlLk6GJQsqaUBKTNV-1">
          <mxGeometry x="943" y="615" width="130" height="30" as="geometry" />
        </mxCell>
        <mxCell id="unNWJV6oFUd24f0aNLEj-60" value="" style="sketch=0;pointerEvents=1;shadow=0;dashed=0;html=1;strokeColor=none;fillColor=#505050;labelPosition=center;verticalLabelPosition=bottom;verticalAlign=top;outlineConnect=0;align=center;shape=mxgraph.office.communications.3rd_party_service;" vertex="1" parent="WIyWlLk6GJQsqaUBKTNV-1">
          <mxGeometry x="920" y="645" width="20" height="20" as="geometry" />
        </mxCell>
        <mxCell id="unNWJV6oFUd24f0aNLEj-61" value="Payment Gateway Service" style="text;html=1;align=left;verticalAlign=middle;whiteSpace=wrap;rounded=0;" vertex="1" parent="WIyWlLk6GJQsqaUBKTNV-1">
          <mxGeometry x="943" y="640" width="167" height="30" as="geometry" />
        </mxCell>
        <mxCell id="unNWJV6oFUd24f0aNLEj-68" value="" style="image;aspect=fixed;perimeter=ellipsePerimeter;html=1;align=center;shadow=0;dashed=0;fontColor=#4277BB;labelBackgroundColor=default;fontSize=12;spacingTop=3;image=img/lib/ibm/infrastructure/mobile_backend.svg;" vertex="1" parent="WIyWlLk6GJQsqaUBKTNV-1">
          <mxGeometry x="920" y="240" width="20" height="20" as="geometry" />
        </mxCell>
        <mxCell id="unNWJV6oFUd24f0aNLEj-81" value="" style="image;aspect=fixed;perimeter=ellipsePerimeter;html=1;align=center;shadow=0;dashed=0;fontColor=#4277BB;labelBackgroundColor=default;fontSize=12;spacingTop=3;image=img/lib/ibm/infrastructure/mobile_backend.svg;" vertex="1" parent="WIyWlLk6GJQsqaUBKTNV-1">
          <mxGeometry x="950" y="240" width="20" height="20" as="geometry" />
        </mxCell>
        <mxCell id="unNWJV6oFUd24f0aNLEj-82" value="" style="image;aspect=fixed;perimeter=ellipsePerimeter;html=1;align=center;shadow=0;dashed=0;fontColor=#4277BB;labelBackgroundColor=default;fontSize=12;spacingTop=3;image=img/lib/ibm/infrastructure/mobile_backend.svg;" vertex="1" parent="WIyWlLk6GJQsqaUBKTNV-1">
          <mxGeometry x="980" y="240" width="20" height="20" as="geometry" />
        </mxCell>
        <mxCell id="Bw_dgr9ODrUabHHvdguo-0" value="Loan Payment API" style="text;html=1;align=left;verticalAlign=middle;whiteSpace=wrap;rounded=0;" vertex="1" parent="WIyWlLk6GJQsqaUBKTNV-1">
          <mxGeometry x="503" y="385" width="130" height="30" as="geometry" />
        </mxCell>
        <mxCell id="Bw_dgr9ODrUabHHvdguo-1" value="" style="outlineConnect=0;dashed=0;verticalLabelPosition=bottom;verticalAlign=top;align=center;html=1;shape=mxgraph.aws3.worker;fillColor=#D9A741;gradientColor=none;" vertex="1" parent="WIyWlLk6GJQsqaUBKTNV-1">
          <mxGeometry x="480" y="390" width="20" height="20" as="geometry" />
        </mxCell>
      </root>
    </mxGraphModel>
  </diagram>
  <diagram id="-hmMoCOVJgIjgc19MNy0" name="ERD">
    <mxGraphModel grid="1" page="1" gridSize="10" guides="1" tooltips="1" connect="1" arrows="1" fold="1" pageScale="1" pageWidth="827" pageHeight="1169" math="0" shadow="0">
      <root>
        <mxCell id="0" />
        <mxCell id="1" parent="0" />
        <mxCell id="EIbswAwPObc8EJ3LAnRI-7" value="&lt;font style=&quot;font-size: 18px;&quot;&gt;User&lt;/font&gt;" style="swimlane;childLayout=stackLayout;horizontal=1;startSize=50;horizontalStack=0;rounded=1;fontSize=14;fontStyle=0;strokeWidth=2;resizeParent=0;resizeLast=1;shadow=0;dashed=0;align=center;arcSize=4;whiteSpace=wrap;html=1;" vertex="1" parent="1">
          <mxGeometry x="60" y="120" width="200" height="220" as="geometry" />
        </mxCell>
        <mxCell id="EIbswAwPObc8EJ3LAnRI-8" value="&lt;font style=&quot;font-size: 16px;&quot;&gt;- user_id&lt;br&gt;- fullname&lt;br&gt;- email&lt;/font&gt;&lt;div style=&quot;font-size: 16px;&quot;&gt;&lt;font style=&quot;font-size: 16px;&quot;&gt;- username&lt;/font&gt;&lt;/div&gt;&lt;div style=&quot;font-size: 16px;&quot;&gt;&lt;font style=&quot;font-size: 16px;&quot;&gt;- password&lt;/font&gt;&lt;/div&gt;&lt;div style=&quot;font-size: 16px;&quot;&gt;&lt;font style=&quot;font-size: 16px;&quot;&gt;- ktp_photo_url&lt;/font&gt;&lt;/div&gt;&lt;div style=&quot;font-size: 16px;&quot;&gt;&lt;font style=&quot;font-size: 16px;&quot;&gt;- ktp_serlfie_photo_url&lt;br&gt;&lt;/font&gt;&lt;div&gt;- create_date&lt;/div&gt;&lt;/div&gt;" style="align=left;strokeColor=none;fillColor=none;spacingLeft=4;fontSize=12;verticalAlign=top;resizable=0;rotatable=0;part=1;html=1;" vertex="1" parent="EIbswAwPObc8EJ3LAnRI-7">
          <mxGeometry y="50" width="200" height="170" as="geometry" />
        </mxCell>
        <mxCell id="EIbswAwPObc8EJ3LAnRI-12" style="edgeStyle=orthogonalEdgeStyle;rounded=0;orthogonalLoop=1;jettySize=auto;html=1;exitX=0.5;exitY=1;exitDx=0;exitDy=0;" edge="1" parent="EIbswAwPObc8EJ3LAnRI-7" source="EIbswAwPObc8EJ3LAnRI-8" target="EIbswAwPObc8EJ3LAnRI-8">
          <mxGeometry relative="1" as="geometry" />
        </mxCell>
        <mxCell id="EIbswAwPObc8EJ3LAnRI-16" value="&lt;font style=&quot;font-size: 18px;&quot;&gt;Loan&lt;/font&gt;" style="swimlane;childLayout=stackLayout;horizontal=1;startSize=50;horizontalStack=0;rounded=1;fontSize=14;fontStyle=0;strokeWidth=2;resizeParent=0;resizeLast=1;shadow=0;dashed=0;align=center;arcSize=4;whiteSpace=wrap;html=1;" vertex="1" parent="1">
          <mxGeometry x="400" y="160" width="190" height="200" as="geometry" />
        </mxCell>
        <mxCell id="EIbswAwPObc8EJ3LAnRI-17" value="&lt;font style=&quot;font-size: 16px;&quot;&gt;- loan_id&lt;br&gt;- user_id&lt;/font&gt;&lt;div&gt;&lt;font style=&quot;font-size: 16px;&quot;&gt;- amount&lt;/font&gt;&lt;/div&gt;&lt;div&gt;&lt;span style=&quot;font-size: 16px; background-color: initial;&quot;&gt;- tenor&lt;/span&gt;&lt;/div&gt;&lt;div&gt;&lt;span style=&quot;font-size: 16px; background-color: initial;&quot;&gt;- tenor_due_date&lt;/span&gt;&lt;/div&gt;&lt;div&gt;&lt;div style=&quot;font-size: 16px;&quot;&gt;&lt;font style=&quot;font-size: 16px;&quot;&gt;- loan_date&lt;/font&gt;&lt;/div&gt;&lt;div style=&quot;font-size: 16px;&quot;&gt;&lt;font style=&quot;font-size: 16px;&quot;&gt;- status&lt;/font&gt;&lt;/div&gt;&lt;/div&gt;" style="align=left;strokeColor=none;fillColor=none;spacingLeft=4;fontSize=12;verticalAlign=top;resizable=0;rotatable=0;part=1;html=1;" vertex="1" parent="EIbswAwPObc8EJ3LAnRI-16">
          <mxGeometry y="50" width="190" height="150" as="geometry" />
        </mxCell>
        <mxCell id="EIbswAwPObc8EJ3LAnRI-18" style="edgeStyle=orthogonalEdgeStyle;rounded=0;orthogonalLoop=1;jettySize=auto;html=1;exitX=0.5;exitY=1;exitDx=0;exitDy=0;" edge="1" parent="EIbswAwPObc8EJ3LAnRI-16" source="EIbswAwPObc8EJ3LAnRI-17" target="EIbswAwPObc8EJ3LAnRI-17">
          <mxGeometry relative="1" as="geometry" />
        </mxCell>
        <mxCell id="o_hC3ZITjk3-B82Okblq-3" style="edgeStyle=orthogonalEdgeStyle;rounded=0;orthogonalLoop=1;jettySize=auto;html=1;entryX=0;entryY=0.25;entryDx=0;entryDy=0;" edge="1" parent="1" source="EIbswAwPObc8EJ3LAnRI-8" target="EIbswAwPObc8EJ3LAnRI-17">
          <mxGeometry relative="1" as="geometry">
            <Array as="points">
              <mxPoint x="337" y="180" />
              <mxPoint x="337" y="248" />
              <mxPoint x="380" y="248" />
            </Array>
          </mxGeometry>
        </mxCell>
        <mxCell id="o_hC3ZITjk3-B82Okblq-17" value="Loan&lt;div&gt;Application&lt;/div&gt;" style="edgeLabel;html=1;align=center;verticalAlign=middle;resizable=0;points=[];" connectable="0" vertex="1" parent="o_hC3ZITjk3-B82Okblq-3">
          <mxGeometry x="-0.082" y="1" relative="1" as="geometry">
            <mxPoint x="5" y="13" as="offset" />
          </mxGeometry>
        </mxCell>
        <mxCell id="o_hC3ZITjk3-B82Okblq-4" value="&lt;font style=&quot;font-size: 18px;&quot;&gt;Transaction&lt;/font&gt;" style="swimlane;childLayout=stackLayout;horizontal=1;startSize=50;horizontalStack=0;rounded=1;fontSize=14;fontStyle=0;strokeWidth=2;resizeParent=0;resizeLast=1;shadow=0;dashed=0;align=center;arcSize=4;whiteSpace=wrap;html=1;" vertex="1" parent="1">
          <mxGeometry x="400" y="440" width="190" height="180" as="geometry" />
        </mxCell>
        <mxCell id="o_hC3ZITjk3-B82Okblq-5" value="&lt;font style=&quot;font-size: 16px;&quot;&gt;- transaction_id&lt;br&gt;- loan_id&lt;br&gt;&lt;/font&gt;&lt;div style=&quot;font-size: 16px;&quot;&gt;&lt;font style=&quot;font-size: 16px;&quot;&gt;- amount&lt;/font&gt;&lt;/div&gt;&lt;div style=&quot;font-size: 16px;&quot;&gt;&lt;font style=&quot;font-size: 16px;&quot;&gt;- type&lt;/font&gt;&lt;/div&gt;&lt;div style=&quot;font-size: 16px;&quot;&gt;&lt;font style=&quot;font-size: 16px;&quot;&gt;- transaction_date&lt;/font&gt;&lt;/div&gt;" style="align=left;strokeColor=none;fillColor=none;spacingLeft=4;fontSize=12;verticalAlign=top;resizable=0;rotatable=0;part=1;html=1;" vertex="1" parent="o_hC3ZITjk3-B82Okblq-4">
          <mxGeometry y="50" width="190" height="130" as="geometry" />
        </mxCell>
        <mxCell id="o_hC3ZITjk3-B82Okblq-6" style="edgeStyle=orthogonalEdgeStyle;rounded=0;orthogonalLoop=1;jettySize=auto;html=1;exitX=0.5;exitY=1;exitDx=0;exitDy=0;" edge="1" parent="o_hC3ZITjk3-B82Okblq-4" source="o_hC3ZITjk3-B82Okblq-5" target="o_hC3ZITjk3-B82Okblq-5">
          <mxGeometry relative="1" as="geometry" />
        </mxCell>
        <mxCell id="o_hC3ZITjk3-B82Okblq-7" value="&lt;font style=&quot;font-size: 18px;&quot;&gt;Repayment&lt;/font&gt;" style="swimlane;childLayout=stackLayout;horizontal=1;startSize=50;horizontalStack=0;rounded=1;fontSize=14;fontStyle=0;strokeWidth=2;resizeParent=0;resizeLast=1;shadow=0;dashed=0;align=center;arcSize=4;whiteSpace=wrap;html=1;" vertex="1" parent="1">
          <mxGeometry x="80" y="520" width="190" height="160" as="geometry" />
        </mxCell>
        <mxCell id="o_hC3ZITjk3-B82Okblq-8" value="&lt;font style=&quot;font-size: 16px;&quot;&gt;- repayment_Id&lt;/font&gt;&lt;div&gt;&lt;font style=&quot;font-size: 16px;&quot;&gt;- transaction_id&lt;br&gt;&lt;/font&gt;&lt;div style=&quot;font-size: 16px;&quot;&gt;&lt;font style=&quot;font-size: 16px;&quot;&gt;- amount&lt;/font&gt;&lt;/div&gt;&lt;div style=&quot;font-size: 16px;&quot;&gt;&lt;span style=&quot;background-color: initial;&quot;&gt;- payment_date&lt;/span&gt;&lt;br&gt;&lt;/div&gt;&lt;/div&gt;&lt;div style=&quot;font-size: 16px;&quot;&gt;&lt;font style=&quot;font-size: 16px;&quot;&gt;- status&lt;/font&gt;&lt;/div&gt;" style="align=left;strokeColor=none;fillColor=none;spacingLeft=4;fontSize=12;verticalAlign=top;resizable=0;rotatable=0;part=1;html=1;" vertex="1" parent="o_hC3ZITjk3-B82Okblq-7">
          <mxGeometry y="50" width="190" height="110" as="geometry" />
        </mxCell>
        <mxCell id="o_hC3ZITjk3-B82Okblq-9" style="edgeStyle=orthogonalEdgeStyle;rounded=0;orthogonalLoop=1;jettySize=auto;html=1;exitX=0.5;exitY=1;exitDx=0;exitDy=0;" edge="1" parent="o_hC3ZITjk3-B82Okblq-7" source="o_hC3ZITjk3-B82Okblq-8" target="o_hC3ZITjk3-B82Okblq-8">
          <mxGeometry relative="1" as="geometry" />
        </mxCell>
        <mxCell id="o_hC3ZITjk3-B82Okblq-10" style="edgeStyle=orthogonalEdgeStyle;rounded=0;orthogonalLoop=1;jettySize=auto;html=1;entryX=1;entryY=0.25;entryDx=0;entryDy=0;" edge="1" parent="1" source="EIbswAwPObc8EJ3LAnRI-17" target="o_hC3ZITjk3-B82Okblq-5">
          <mxGeometry relative="1" as="geometry">
            <Array as="points">
              <mxPoint x="710" y="235" />
              <mxPoint x="710" y="443" />
              <mxPoint x="590" y="443" />
            </Array>
          </mxGeometry>
        </mxCell>
        <mxCell id="o_hC3ZITjk3-B82Okblq-15" value="Loan&lt;div&gt;Apporved&lt;/div&gt;" style="edgeLabel;html=1;align=center;verticalAlign=middle;resizable=0;points=[];" connectable="0" vertex="1" parent="o_hC3ZITjk3-B82Okblq-10">
          <mxGeometry x="0.2813" y="4" relative="1" as="geometry">
            <mxPoint x="2" y="-60" as="offset" />
          </mxGeometry>
        </mxCell>
        <mxCell id="o_hC3ZITjk3-B82Okblq-11" style="edgeStyle=orthogonalEdgeStyle;rounded=0;orthogonalLoop=1;jettySize=auto;html=1;entryX=1;entryY=0.25;entryDx=0;entryDy=0;" edge="1" parent="1" source="o_hC3ZITjk3-B82Okblq-5" target="o_hC3ZITjk3-B82Okblq-8">
          <mxGeometry relative="1" as="geometry">
            <Array as="points">
              <mxPoint x="340" y="510" />
              <mxPoint x="340" y="598" />
              <mxPoint x="310" y="598" />
            </Array>
          </mxGeometry>
        </mxCell>
        <mxCell id="o_hC3ZITjk3-B82Okblq-16" value="Payment&lt;div&gt;Detail&lt;/div&gt;" style="edgeLabel;html=1;align=center;verticalAlign=middle;resizable=0;points=[];" connectable="0" vertex="1" parent="o_hC3ZITjk3-B82Okblq-11">
          <mxGeometry x="-0.0027" y="-2" relative="1" as="geometry">
            <mxPoint as="offset" />
          </mxGeometry>
        </mxCell>
        <mxCell id="o_hC3ZITjk3-B82Okblq-12" value="* status : pending, sukses, gagal" style="text;html=1;align=left;verticalAlign=middle;whiteSpace=wrap;rounded=0;" vertex="1" parent="1">
          <mxGeometry x="80" y="680" width="196" height="30" as="geometry" />
        </mxCell>
        <mxCell id="o_hC3ZITjk3-B82Okblq-13" value="* type : jenis pencairan dana ( transfer, cash )" style="text;html=1;align=left;verticalAlign=middle;whiteSpace=wrap;rounded=0;" vertex="1" parent="1">
          <mxGeometry x="400" y="620" width="250" height="30" as="geometry" />
        </mxCell>
        <mxCell id="o_hC3ZITjk3-B82Okblq-14" value="* status : checking, approved, reject" style="text;html=1;align=left;verticalAlign=middle;whiteSpace=wrap;rounded=0;" vertex="1" parent="1">
          <mxGeometry x="400" y="360" width="200" height="30" as="geometry" />
        </mxCell>
      </root>
    </mxGraphModel>
  </diagram>
  <diagram id="ZIvdTfnCwzJifWAX-mFs" name="Behavior">
    <mxGraphModel grid="1" page="1" gridSize="10" guides="1" tooltips="1" connect="1" arrows="1" fold="1" pageScale="1" pageWidth="827" pageHeight="1169" math="0" shadow="0">
      <root>
        <mxCell id="0" />
        <mxCell id="1" parent="0" />
        <mxCell id="m3d19xC5EAQIqxWACVbC-3" style="edgeStyle=orthogonalEdgeStyle;rounded=0;orthogonalLoop=1;jettySize=auto;html=1;exitX=1;exitY=0.5;exitDx=0;exitDy=0;exitPerimeter=0;" edge="1" parent="1" source="m3d19xC5EAQIqxWACVbC-1" target="m3d19xC5EAQIqxWACVbC-2">
          <mxGeometry relative="1" as="geometry" />
        </mxCell>
        <mxCell id="m3d19xC5EAQIqxWACVbC-1" value="Begin" style="strokeWidth=2;html=1;shape=mxgraph.flowchart.terminator;whiteSpace=wrap;" vertex="1" parent="1">
          <mxGeometry x="50" y="60" width="100" height="60" as="geometry" />
        </mxCell>
        <mxCell id="m3d19xC5EAQIqxWACVbC-5" style="edgeStyle=orthogonalEdgeStyle;rounded=0;orthogonalLoop=1;jettySize=auto;html=1;exitX=1;exitY=0.5;exitDx=0;exitDy=0;entryX=0;entryY=0.5;entryDx=0;entryDy=0;" edge="1" parent="1" source="m3d19xC5EAQIqxWACVbC-2" target="m3d19xC5EAQIqxWACVbC-4">
          <mxGeometry relative="1" as="geometry" />
        </mxCell>
        <mxCell id="m3d19xC5EAQIqxWACVbC-2" value="Sign Up Screen" style="rounded=0;whiteSpace=wrap;html=1;" vertex="1" parent="1">
          <mxGeometry x="200" y="60" width="120" height="60" as="geometry" />
        </mxCell>
        <mxCell id="m3d19xC5EAQIqxWACVbC-7" style="edgeStyle=orthogonalEdgeStyle;rounded=0;orthogonalLoop=1;jettySize=auto;html=1;entryX=0;entryY=0.5;entryDx=0;entryDy=0;" edge="1" parent="1" source="m3d19xC5EAQIqxWACVbC-4" target="m3d19xC5EAQIqxWACVbC-6">
          <mxGeometry relative="1" as="geometry" />
        </mxCell>
        <mxCell id="m3d19xC5EAQIqxWACVbC-4" value="Input&amp;nbsp;&lt;div&gt;Personal Data&lt;/div&gt;" style="shape=parallelogram;perimeter=parallelogramPerimeter;whiteSpace=wrap;html=1;fixedSize=1;" vertex="1" parent="1">
          <mxGeometry x="370" y="60" width="120" height="60" as="geometry" />
        </mxCell>
        <mxCell id="m3d19xC5EAQIqxWACVbC-9" style="edgeStyle=orthogonalEdgeStyle;rounded=0;orthogonalLoop=1;jettySize=auto;html=1;entryX=0.5;entryY=1;entryDx=0;entryDy=0;" edge="1" parent="1" source="m3d19xC5EAQIqxWACVbC-6" target="m3d19xC5EAQIqxWACVbC-4">
          <mxGeometry relative="1" as="geometry">
            <Array as="points">
              <mxPoint x="580" y="150" />
              <mxPoint x="430" y="150" />
            </Array>
          </mxGeometry>
        </mxCell>
        <mxCell id="m3d19xC5EAQIqxWACVbC-10" value="No" style="edgeLabel;html=1;align=center;verticalAlign=middle;resizable=0;points=[];" connectable="0" vertex="1" parent="m3d19xC5EAQIqxWACVbC-9">
          <mxGeometry x="-0.03" y="-1" relative="1" as="geometry">
            <mxPoint as="offset" />
          </mxGeometry>
        </mxCell>
        <mxCell id="m3d19xC5EAQIqxWACVbC-29" value="Yes" style="edgeStyle=orthogonalEdgeStyle;rounded=0;orthogonalLoop=1;jettySize=auto;html=1;" edge="1" parent="1" source="m3d19xC5EAQIqxWACVbC-6" target="m3d19xC5EAQIqxWACVbC-28">
          <mxGeometry relative="1" as="geometry" />
        </mxCell>
        <mxCell id="m3d19xC5EAQIqxWACVbC-6" value="Available" style="rhombus;whiteSpace=wrap;html=1;" vertex="1" parent="1">
          <mxGeometry x="540" y="50" width="80" height="80" as="geometry" />
        </mxCell>
        <mxCell id="m3d19xC5EAQIqxWACVbC-11" value="Home Screen" style="rounded=0;whiteSpace=wrap;html=1;" vertex="1" parent="1">
          <mxGeometry x="840" y="60" width="120" height="60" as="geometry" />
        </mxCell>
        <mxCell id="m3d19xC5EAQIqxWACVbC-17" value="" style="edgeStyle=orthogonalEdgeStyle;rounded=0;orthogonalLoop=1;jettySize=auto;html=1;" edge="1" parent="1" source="m3d19xC5EAQIqxWACVbC-13" target="m3d19xC5EAQIqxWACVbC-15">
          <mxGeometry relative="1" as="geometry" />
        </mxCell>
        <mxCell id="m3d19xC5EAQIqxWACVbC-13" value="Begin" style="strokeWidth=2;html=1;shape=mxgraph.flowchart.terminator;whiteSpace=wrap;" vertex="1" parent="1">
          <mxGeometry x="50" y="230" width="100" height="60" as="geometry" />
        </mxCell>
        <mxCell id="m3d19xC5EAQIqxWACVbC-19" value="" style="edgeStyle=orthogonalEdgeStyle;rounded=0;orthogonalLoop=1;jettySize=auto;html=1;" edge="1" parent="1" source="m3d19xC5EAQIqxWACVbC-15" target="m3d19xC5EAQIqxWACVbC-18">
          <mxGeometry relative="1" as="geometry" />
        </mxCell>
        <mxCell id="m3d19xC5EAQIqxWACVbC-15" value="Sign In Screen" style="rounded=0;whiteSpace=wrap;html=1;" vertex="1" parent="1">
          <mxGeometry x="200" y="230" width="120" height="60" as="geometry" />
        </mxCell>
        <mxCell id="m3d19xC5EAQIqxWACVbC-21" value="" style="edgeStyle=orthogonalEdgeStyle;rounded=0;orthogonalLoop=1;jettySize=auto;html=1;" edge="1" parent="1" source="m3d19xC5EAQIqxWACVbC-18" target="m3d19xC5EAQIqxWACVbC-20">
          <mxGeometry relative="1" as="geometry" />
        </mxCell>
        <mxCell id="m3d19xC5EAQIqxWACVbC-18" value="Input&lt;br&gt;Username&lt;div&gt;Password&lt;/div&gt;" style="shape=parallelogram;perimeter=parallelogramPerimeter;whiteSpace=wrap;html=1;fixedSize=1;" vertex="1" parent="1">
          <mxGeometry x="350" y="230" width="120" height="60" as="geometry" />
        </mxCell>
        <mxCell id="m3d19xC5EAQIqxWACVbC-22" style="edgeStyle=orthogonalEdgeStyle;rounded=0;orthogonalLoop=1;jettySize=auto;html=1;entryX=0.5;entryY=1;entryDx=0;entryDy=0;" edge="1" parent="1" source="m3d19xC5EAQIqxWACVbC-20" target="m3d19xC5EAQIqxWACVbC-18">
          <mxGeometry relative="1" as="geometry">
            <Array as="points">
              <mxPoint x="580" y="320" />
              <mxPoint x="410" y="320" />
            </Array>
          </mxGeometry>
        </mxCell>
        <mxCell id="m3d19xC5EAQIqxWACVbC-25" value="No" style="edgeLabel;html=1;align=center;verticalAlign=middle;resizable=0;points=[];" connectable="0" vertex="1" parent="m3d19xC5EAQIqxWACVbC-22">
          <mxGeometry x="-0.0636" y="3" relative="1" as="geometry">
            <mxPoint as="offset" />
          </mxGeometry>
        </mxCell>
        <mxCell id="m3d19xC5EAQIqxWACVbC-27" value="Yes" style="edgeStyle=orthogonalEdgeStyle;rounded=0;orthogonalLoop=1;jettySize=auto;html=1;" edge="1" parent="1" source="m3d19xC5EAQIqxWACVbC-20" target="m3d19xC5EAQIqxWACVbC-26">
          <mxGeometry relative="1" as="geometry" />
        </mxCell>
        <mxCell id="m3d19xC5EAQIqxWACVbC-20" value="Available" style="rhombus;whiteSpace=wrap;html=1;" vertex="1" parent="1">
          <mxGeometry x="540" y="220" width="80" height="80" as="geometry" />
        </mxCell>
        <mxCell id="m3d19xC5EAQIqxWACVbC-26" value="Home Screen" style="rounded=0;whiteSpace=wrap;html=1;" vertex="1" parent="1">
          <mxGeometry x="680" y="230" width="120" height="60" as="geometry" />
        </mxCell>
        <mxCell id="m3d19xC5EAQIqxWACVbC-30" value="" style="edgeStyle=orthogonalEdgeStyle;rounded=0;orthogonalLoop=1;jettySize=auto;html=1;" edge="1" parent="1" source="m3d19xC5EAQIqxWACVbC-28" target="m3d19xC5EAQIqxWACVbC-11">
          <mxGeometry relative="1" as="geometry" />
        </mxCell>
        <mxCell id="m3d19xC5EAQIqxWACVbC-28" value="Verification&lt;div&gt;Email / Phone&lt;/div&gt;" style="shape=parallelogram;perimeter=parallelogramPerimeter;whiteSpace=wrap;html=1;fixedSize=1;" vertex="1" parent="1">
          <mxGeometry x="680" y="60" width="120" height="60" as="geometry" />
        </mxCell>
        <mxCell id="m3d19xC5EAQIqxWACVbC-31" value="&lt;h1 style=&quot;margin-top: 0px; font-size: 13px;&quot;&gt;Sign Up&lt;/h1&gt;" style="text;html=1;whiteSpace=wrap;overflow=hidden;rounded=0;fontSize=13;" vertex="1" parent="1">
          <mxGeometry x="70" y="20" width="60" height="30" as="geometry" />
        </mxCell>
        <mxCell id="m3d19xC5EAQIqxWACVbC-32" value="&lt;h1 style=&quot;margin-top: 0px; font-size: 13px;&quot;&gt;Sign In&lt;/h1&gt;" style="text;html=1;whiteSpace=wrap;overflow=hidden;rounded=0;fontSize=13;" vertex="1" parent="1">
          <mxGeometry x="70" y="190" width="60" height="30" as="geometry" />
        </mxCell>
        <mxCell id="m3d19xC5EAQIqxWACVbC-36" value="" style="edgeStyle=orthogonalEdgeStyle;rounded=0;orthogonalLoop=1;jettySize=auto;html=1;" edge="1" parent="1" source="m3d19xC5EAQIqxWACVbC-33" target="m3d19xC5EAQIqxWACVbC-35">
          <mxGeometry relative="1" as="geometry" />
        </mxCell>
        <mxCell id="m3d19xC5EAQIqxWACVbC-33" value="Begin" style="strokeWidth=2;html=1;shape=mxgraph.flowchart.terminator;whiteSpace=wrap;" vertex="1" parent="1">
          <mxGeometry x="50" y="400" width="100" height="60" as="geometry" />
        </mxCell>
        <mxCell id="m3d19xC5EAQIqxWACVbC-34" value="&lt;h1 style=&quot;margin-top: 0px; font-size: 13px;&quot;&gt;Loan Application&lt;/h1&gt;" style="text;html=1;whiteSpace=wrap;overflow=hidden;rounded=0;fontSize=13;" vertex="1" parent="1">
          <mxGeometry x="50" y="360" width="110" height="30" as="geometry" />
        </mxCell>
        <mxCell id="m3d19xC5EAQIqxWACVbC-38" value="" style="edgeStyle=orthogonalEdgeStyle;rounded=0;orthogonalLoop=1;jettySize=auto;html=1;" edge="1" parent="1" source="m3d19xC5EAQIqxWACVbC-35" target="m3d19xC5EAQIqxWACVbC-37">
          <mxGeometry relative="1" as="geometry" />
        </mxCell>
        <mxCell id="m3d19xC5EAQIqxWACVbC-35" value="Home Screen" style="rounded=0;whiteSpace=wrap;html=1;" vertex="1" parent="1">
          <mxGeometry x="200" y="400" width="120" height="60" as="geometry" />
        </mxCell>
        <mxCell id="m3d19xC5EAQIqxWACVbC-40" value="" style="edgeStyle=orthogonalEdgeStyle;rounded=0;orthogonalLoop=1;jettySize=auto;html=1;" edge="1" parent="1" source="m3d19xC5EAQIqxWACVbC-37" target="m3d19xC5EAQIqxWACVbC-39">
          <mxGeometry relative="1" as="geometry" />
        </mxCell>
        <mxCell id="m3d19xC5EAQIqxWACVbC-37" value="Loan Application&lt;br&gt;Screen" style="rounded=0;whiteSpace=wrap;html=1;" vertex="1" parent="1">
          <mxGeometry x="360" y="400" width="120" height="60" as="geometry" />
        </mxCell>
        <mxCell id="m3d19xC5EAQIqxWACVbC-42" value="" style="edgeStyle=orthogonalEdgeStyle;rounded=0;orthogonalLoop=1;jettySize=auto;html=1;" edge="1" parent="1" source="m3d19xC5EAQIqxWACVbC-39" target="m3d19xC5EAQIqxWACVbC-41">
          <mxGeometry relative="1" as="geometry" />
        </mxCell>
        <mxCell id="m3d19xC5EAQIqxWACVbC-39" value="Input&lt;br&gt;Loan Application" style="shape=parallelogram;perimeter=parallelogramPerimeter;whiteSpace=wrap;html=1;fixedSize=1;" vertex="1" parent="1">
          <mxGeometry x="510" y="400" width="120" height="60" as="geometry" />
        </mxCell>
        <mxCell id="m3d19xC5EAQIqxWACVbC-43" style="edgeStyle=orthogonalEdgeStyle;rounded=0;orthogonalLoop=1;jettySize=auto;html=1;entryX=0.5;entryY=1;entryDx=0;entryDy=0;" edge="1" parent="1" source="m3d19xC5EAQIqxWACVbC-41" target="m3d19xC5EAQIqxWACVbC-39">
          <mxGeometry relative="1" as="geometry">
            <Array as="points">
              <mxPoint x="710" y="490" />
              <mxPoint x="570" y="490" />
            </Array>
          </mxGeometry>
        </mxCell>
        <mxCell id="m3d19xC5EAQIqxWACVbC-44" value="No" style="edgeLabel;html=1;align=center;verticalAlign=middle;resizable=0;points=[];" connectable="0" vertex="1" parent="m3d19xC5EAQIqxWACVbC-43">
          <mxGeometry x="-0.1368" y="1" relative="1" as="geometry">
            <mxPoint as="offset" />
          </mxGeometry>
        </mxCell>
        <mxCell id="m3d19xC5EAQIqxWACVbC-49" value="" style="edgeStyle=orthogonalEdgeStyle;rounded=0;orthogonalLoop=1;jettySize=auto;html=1;" edge="1" parent="1" source="m3d19xC5EAQIqxWACVbC-41" target="m3d19xC5EAQIqxWACVbC-48">
          <mxGeometry relative="1" as="geometry" />
        </mxCell>
        <mxCell id="m3d19xC5EAQIqxWACVbC-50" value="Yes" style="edgeLabel;html=1;align=center;verticalAlign=middle;resizable=0;points=[];" connectable="0" vertex="1" parent="m3d19xC5EAQIqxWACVbC-49">
          <mxGeometry x="-0.2333" y="-1" relative="1" as="geometry">
            <mxPoint as="offset" />
          </mxGeometry>
        </mxCell>
        <mxCell id="m3d19xC5EAQIqxWACVbC-41" value="Available" style="rhombus;whiteSpace=wrap;html=1;" vertex="1" parent="1">
          <mxGeometry x="670" y="390" width="80" height="80" as="geometry" />
        </mxCell>
        <mxCell id="m3d19xC5EAQIqxWACVbC-48" value="Success Screen" style="rounded=0;whiteSpace=wrap;html=1;" vertex="1" parent="1">
          <mxGeometry x="810" y="400" width="120" height="60" as="geometry" />
        </mxCell>
        <mxCell id="m3d19xC5EAQIqxWACVbC-51" value="" style="edgeStyle=orthogonalEdgeStyle;rounded=0;orthogonalLoop=1;jettySize=auto;html=1;" edge="1" parent="1" source="m3d19xC5EAQIqxWACVbC-52" target="m3d19xC5EAQIqxWACVbC-55">
          <mxGeometry relative="1" as="geometry" />
        </mxCell>
        <mxCell id="m3d19xC5EAQIqxWACVbC-52" value="Begin" style="strokeWidth=2;html=1;shape=mxgraph.flowchart.terminator;whiteSpace=wrap;" vertex="1" parent="1">
          <mxGeometry x="50" y="560" width="100" height="60" as="geometry" />
        </mxCell>
        <mxCell id="m3d19xC5EAQIqxWACVbC-53" value="&lt;h1 style=&quot;margin-top: 0px; font-size: 13px;&quot;&gt;Loan Application Status&lt;/h1&gt;" style="text;html=1;whiteSpace=wrap;overflow=hidden;rounded=0;fontSize=13;" vertex="1" parent="1">
          <mxGeometry x="50" y="520" width="170" height="30" as="geometry" />
        </mxCell>
        <mxCell id="m3d19xC5EAQIqxWACVbC-54" value="" style="edgeStyle=orthogonalEdgeStyle;rounded=0;orthogonalLoop=1;jettySize=auto;html=1;" edge="1" parent="1" source="m3d19xC5EAQIqxWACVbC-55" target="m3d19xC5EAQIqxWACVbC-57">
          <mxGeometry relative="1" as="geometry" />
        </mxCell>
        <mxCell id="m3d19xC5EAQIqxWACVbC-55" value="Home Screen" style="rounded=0;whiteSpace=wrap;html=1;" vertex="1" parent="1">
          <mxGeometry x="200" y="560" width="120" height="60" as="geometry" />
        </mxCell>
        <mxCell id="m3d19xC5EAQIqxWACVbC-57" value="Loan Application status Screen" style="rounded=0;whiteSpace=wrap;html=1;" vertex="1" parent="1">
          <mxGeometry x="360" y="560" width="120" height="60" as="geometry" />
        </mxCell>
        <mxCell id="m3d19xC5EAQIqxWACVbC-66" value="&lt;h1 style=&quot;margin-top: 0px; font-size: 13px;&quot;&gt;Loan Application Notif&lt;/h1&gt;" style="text;html=1;whiteSpace=wrap;overflow=hidden;rounded=0;fontSize=13;" vertex="1" parent="1">
          <mxGeometry x="40" y="680" width="170" height="30" as="geometry" />
        </mxCell>
        <mxCell id="m3d19xC5EAQIqxWACVbC-70" value="" style="edgeStyle=orthogonalEdgeStyle;rounded=0;orthogonalLoop=1;jettySize=auto;html=1;" edge="1" parent="1" source="m3d19xC5EAQIqxWACVbC-68" target="m3d19xC5EAQIqxWACVbC-69">
          <mxGeometry relative="1" as="geometry" />
        </mxCell>
        <mxCell id="m3d19xC5EAQIqxWACVbC-68" value="Begin" style="strokeWidth=2;html=1;shape=mxgraph.flowchart.terminator;whiteSpace=wrap;" vertex="1" parent="1">
          <mxGeometry x="55" y="720" width="100" height="60" as="geometry" />
        </mxCell>
        <mxCell id="m3d19xC5EAQIqxWACVbC-72" style="edgeStyle=orthogonalEdgeStyle;rounded=0;orthogonalLoop=1;jettySize=auto;html=1;" edge="1" parent="1" source="m3d19xC5EAQIqxWACVbC-69" target="m3d19xC5EAQIqxWACVbC-71">
          <mxGeometry relative="1" as="geometry" />
        </mxCell>
        <mxCell id="m3d19xC5EAQIqxWACVbC-69" value="Notif&lt;br&gt;Email &amp;amp; WA" style="shape=parallelogram;perimeter=parallelogramPerimeter;whiteSpace=wrap;html=1;fixedSize=1;" vertex="1" parent="1">
          <mxGeometry x="190" y="720" width="120" height="60" as="geometry" />
        </mxCell>
        <mxCell id="m3d19xC5EAQIqxWACVbC-71" value="Sign In&lt;br&gt;Screen" style="rounded=0;whiteSpace=wrap;html=1;" vertex="1" parent="1">
          <mxGeometry x="354" y="720" width="120" height="60" as="geometry" />
        </mxCell>
        <mxCell id="m3d19xC5EAQIqxWACVbC-73" value="&lt;h1 style=&quot;margin-top: 0px; font-size: 13px;&quot;&gt;Loan Payment&lt;/h1&gt;" style="text;html=1;whiteSpace=wrap;overflow=hidden;rounded=0;fontSize=13;" vertex="1" parent="1">
          <mxGeometry x="40" y="840" width="170" height="30" as="geometry" />
        </mxCell>
        <mxCell id="m3d19xC5EAQIqxWACVbC-81" value="" style="edgeStyle=orthogonalEdgeStyle;rounded=0;orthogonalLoop=1;jettySize=auto;html=1;" edge="1" parent="1" source="m3d19xC5EAQIqxWACVbC-75" target="m3d19xC5EAQIqxWACVbC-79">
          <mxGeometry relative="1" as="geometry" />
        </mxCell>
        <mxCell id="m3d19xC5EAQIqxWACVbC-75" value="Begin" style="strokeWidth=2;html=1;shape=mxgraph.flowchart.terminator;whiteSpace=wrap;" vertex="1" parent="1">
          <mxGeometry x="55" y="880" width="100" height="60" as="geometry" />
        </mxCell>
        <mxCell id="m3d19xC5EAQIqxWACVbC-83" value="" style="edgeStyle=orthogonalEdgeStyle;rounded=0;orthogonalLoop=1;jettySize=auto;html=1;" edge="1" parent="1" source="m3d19xC5EAQIqxWACVbC-79" target="m3d19xC5EAQIqxWACVbC-82">
          <mxGeometry relative="1" as="geometry" />
        </mxCell>
        <mxCell id="m3d19xC5EAQIqxWACVbC-79" value="Home Screen" style="rounded=0;whiteSpace=wrap;html=1;" vertex="1" parent="1">
          <mxGeometry x="200" y="880" width="120" height="60" as="geometry" />
        </mxCell>
        <mxCell id="m3d19xC5EAQIqxWACVbC-82" value="Payment Screen" style="rounded=0;whiteSpace=wrap;html=1;" vertex="1" parent="1">
          <mxGeometry x="360" y="880" width="120" height="60" as="geometry" />
        </mxCell>
      </root>
    </mxGraphModel>
  </diagram>
</mxfile>
